<?xml version="1.0" encoding="utf-8"?>
<!-- Generator: Adobe Illustrator 16.0.0, SVG Export Plug-In . SVG Version: 6.00 Build 0)  -->
<!DOCTYPE svg PUBLIC "-//W3C//DTD SVG 1.1//EN" "http://www.w3.org/Graphics/SVG/1.1/DTD/svg11.dtd">
<svg version="1.1" id="Layer_1" xmlns="http://www.w3.org/2000/svg" xmlns:xlink="http://www.w3.org/1999/xlink" x="0px" y="0px"
	 width="16px" height="16px" viewBox="0 0 16 16" enable-background="new 0 0 16 16" xml:space="preserve">
<path d="M8,0.041C3.605,0.041,0.041,3.605,0.041,8c0,4.396,3.564,7.959,7.959,7.959c4.396,0,7.959-3.562,7.959-7.959
	C15.959,3.605,12.396,0.041,8,0.041z M8,12.312L4.352,8h2.321V4.021h2.653V8h2.32L8,12.312z M11.999,13.541
	c0,0.207-0.168,0.375-0.375,0.375H4.376c-0.207,0-0.375-0.168-0.375-0.375l0,0c0-0.207,0.168-0.375,0.375-0.375h7.248
	C11.831,13.166,11.999,13.334,11.999,13.541L11.999,13.541z"/>
</svg>
