<?xml version="1.0" encoding="utf-8"?>
<!-- Generator: Adobe Illustrator 16.0.0, SVG Export Plug-In . SVG Version: 6.00 Build 0)  -->
<!DOCTYPE svg PUBLIC "-//W3C//DTD SVG 1.1//EN" "http://www.w3.org/Graphics/SVG/1.1/DTD/svg11.dtd">
<svg version="1.1" id="Capa_1" xmlns="http://www.w3.org/2000/svg" xmlns:xlink="http://www.w3.org/1999/xlink" x="0px" y="0px"
	 width="16px" height="16px" viewBox="298 388 16 16" enable-background="new 298 388 16 16" xml:space="preserve">
<path d="M306,404c-0.736,0-1.445-0.096-2.128-0.288s-1.32-0.461-1.912-0.808s-1.131-0.763-1.616-1.248
	c-0.485-0.485-0.901-1.024-1.248-1.616s-0.616-1.229-0.808-1.912S298,396.736,298,396c0-0.736,0.096-1.445,0.288-2.128
	s0.461-1.32,0.808-1.912s0.763-1.131,1.248-1.616c0.485-0.485,1.024-0.901,1.616-1.248s1.229-0.616,1.912-0.808S305.264,388,306,388
	c1.099,0,2.136,0.211,3.112,0.632c0.976,0.421,1.824,0.992,2.544,1.712c0.72,0.72,1.29,1.568,1.712,2.544
	c0.421,0.976,0.632,2.013,0.632,3.112c0,0.736-0.096,1.445-0.288,2.128s-0.461,1.32-0.808,1.912s-0.763,1.131-1.248,1.616
	s-1.024,0.901-1.616,1.248s-1.229,0.615-1.912,0.808S306.736,404,306,404z M309.856,392.704h-7.584
	c-0.075,0-0.139,0.024-0.192,0.072c-0.053,0.048-0.08,0.115-0.08,0.2v0.848c0,0.042,0.016,0.064,0.048,0.064l3.984,2.272
	l0.032,0.016c0.021,0,0.038-0.005,0.048-0.016l3.855-2.272c0.021-0.011,0.038-0.016,0.048-0.016c0.011,0,0.027-0.005,0.049-0.016
	c0.042,0,0.063-0.021,0.063-0.064v-0.816c0-0.085-0.026-0.152-0.08-0.2C309.994,392.728,309.931,392.704,309.856,392.704z
	 M304.416,396.112c0.011-0.01,0.016-0.026,0.016-0.048c0-0.032-0.011-0.048-0.032-0.048l-2.288-1.312
	c-0.032-0.011-0.059-0.011-0.08,0c-0.021,0-0.032,0.016-0.032,0.048v3.44c0,0.031,0.016,0.053,0.048,0.063h0.032
	c0.021,0,0.032-0.005,0.032-0.016L304.416,396.112z M307.2,396.368c-0.011-0.032-0.037-0.037-0.08-0.016l-0.88,0.512
	c-0.107,0.063-0.219,0.063-0.336,0l-0.768-0.432c-0.032-0.021-0.059-0.021-0.08,0l-2.928,2.72c-0.011,0.011-0.016,0.031-0.016,0.063
	c0,0.011,0.011,0.026,0.032,0.048c0.064,0.021,0.106,0.032,0.128,0.032h7.504c0.021,0,0.042-0.011,0.063-0.032
	c0-0.042-0.005-0.068-0.016-0.08L307.2,396.368z M310.08,394.64h-0.064l-2.176,1.296c-0.021,0-0.032,0.016-0.032,0.048
	c-0.011,0.011-0.005,0.027,0.017,0.048l2.176,2.352c0.021,0.021,0.037,0.032,0.048,0.032h0.032c0.032-0.032,0.048-0.054,0.048-0.064
	v-3.647C310.128,394.683,310.112,394.661,310.08,394.64z"/>
</svg>
