<?xml version="1.0" encoding="utf-8"?>
<!-- Generator: Adobe Illustrator 16.0.0, SVG Export Plug-In . SVG Version: 6.00 Build 0)  -->
<!DOCTYPE svg PUBLIC "-//W3C//DTD SVG 1.1//EN" "http://www.w3.org/Graphics/SVG/1.1/DTD/svg11.dtd">
<svg version="1.1" id="Layer_1" xmlns="http://www.w3.org/2000/svg" xmlns:xlink="http://www.w3.org/1999/xlink" x="0px" y="0px"
	 width="16.318px" height="16px" viewBox="16.5 17.719 16.318 16" enable-background="new 16.5 17.719 16.318 16"
	 xml:space="preserve">
<path d="M27.455,33.587c-0.08,0.029-0.159,0.064-0.241,0.078c-0.313,0.055-0.515-0.107-0.516-0.426
	c-0.005-0.596-0.005-1.189,0.005-1.783c0.011-0.684-0.005-1.359-0.526-1.924c0.31-0.055,0.586-0.094,0.854-0.156
	c1.784-0.41,2.711-1.535,2.829-3.401c0.061-0.951-0.109-1.825-0.741-2.573c-0.045-0.053-0.047-0.173-0.025-0.25
	c0.168-0.618,0.118-1.224-0.077-1.828c-0.048-0.151-0.129-0.198-0.277-0.188c-0.524,0.029-1.004,0.213-1.428,0.495
	c-0.407,0.274-0.787,0.334-1.272,0.224c-1.067-0.241-2.142-0.171-3.206,0.076c-0.121,0.028-0.283-0.01-0.394-0.075
	c-0.5-0.292-1-0.577-1.576-0.69c-0.446-0.087-0.485-0.065-0.603,0.366c-0.149,0.543-0.164,1.087-0.012,1.634
	c0.022,0.08,0,0.207-0.054,0.266c-1.181,1.318-0.753,3.81,0.043,4.763c0.619,0.74,1.441,1.074,2.354,1.248
	c0.159,0.029,0.318,0.053,0.477,0.08c-0.137,0.355-0.26,0.691-0.399,1.021c-0.027,0.064-0.113,0.117-0.184,0.145
	c-0.896,0.348-1.665,0.092-2.178-0.721c-0.274-0.434-0.625-0.756-1.149-0.85c-0.017-0.004-0.034-0.014-0.049-0.012
	c-0.141,0.037-0.281,0.076-0.421,0.115c0.08,0.109,0.135,0.258,0.241,0.324c0.444,0.281,0.733,0.68,0.924,1.154
	c0.299,0.74,0.882,1.07,1.638,1.135c0.369,0.031,0.742,0.006,1.146,0.006c0,0.459,0.017,0.984-0.007,1.508
	c-0.012,0.281-0.295,0.395-0.634,0.279c-0.899-0.309-1.734-0.748-2.454-1.369c-2.601-2.24-3.603-5.074-2.739-8.389
	c0.861-3.304,3.107-5.331,6.466-5.968c4.646-0.878,9.049,2.506,9.51,7.223C33.143,28.841,30.954,32.321,27.455,33.587z
	 M23.075,29.503c-0.003,0.006-0.004,0.012-0.007,0.018c0.008,0,0.016,0.002,0.025,0.004C23.099,29.524,23.104,29.536,23.075,29.503z
	 M20.972,30.974c0.073,0.043,0.142,0.1,0.22,0.125c0.029,0.01,0.082-0.057,0.176-0.125c-0.13-0.051-0.207-0.094-0.288-0.104
	C21.049,30.864,21.008,30.937,20.972,30.974z M21.634,31.087c0.011,0.049,0.107,0.109,0.165,0.107c0.055,0,0.108-0.074,0.163-0.115
	c-0.05-0.045-0.1-0.09-0.253-0.229C21.675,30.946,21.62,31.024,21.634,31.087z M22.446,30.892c-0.068,0.016-0.126,0.078-0.188,0.121
	c0.037,0.047,0.073,0.09,0.132,0.162c0.081-0.074,0.136-0.125,0.191-0.174C22.535,30.96,22.481,30.882,22.446,30.892z
	 M20.433,30.616c0.038,0.072,0.097,0.135,0.176,0.234c0.053-0.086,0.111-0.152,0.101-0.166c-0.05-0.066-0.119-0.121-0.187-0.17
	C20.519,30.511,20.425,30.601,20.433,30.616z"/>
</svg>
