<?xml version="1.0" encoding="utf-8"?>
<!-- Generator: Adobe Illustrator 16.0.0, SVG Export Plug-In . SVG Version: 6.00 Build 0)  -->
<!DOCTYPE svg PUBLIC "-//W3C//DTD SVG 1.1//EN" "http://www.w3.org/Graphics/SVG/1.1/DTD/svg11.dtd">
<svg version="1.1" id="Icons" xmlns="http://www.w3.org/2000/svg" xmlns:xlink="http://www.w3.org/1999/xlink" x="0px" y="0px"
	 width="16px" height="16px" viewBox="0 0 16 16" enable-background="new 0 0 16 16" xml:space="preserve">
<path id="Facebook_Places" d="M13.166,4.046c-0.058-0.21-0.169-0.433-0.255-0.629c-1.006-2.42-3.208-3.288-4.984-3.288
	c-2.378,0-4.998,1.595-5.348,4.882v0.672c0,0.027,0.009,0.279,0.022,0.406c0.196,1.567,1.432,3.233,2.356,4.798
	c0.993,1.681,2.024,3.33,3.044,4.982c0.632-1.08,1.257-2.169,1.872-3.22c0.168-0.307,0.361-0.615,0.53-0.91
	c0.109-0.195,0.325-0.392,0.424-0.571c0.993-1.82,2.592-3.652,2.592-5.458v-0.74C13.422,4.775,13.182,4.088,13.166,4.046z
	 M7.973,7.418c-0.7,0-1.465-0.35-1.844-1.315C6.073,5.95,6.078,5.642,6.078,5.613V5.18c0-1.23,1.045-1.791,1.954-1.791
	c1.119,0,1.985,0.896,1.985,2.015C10.017,6.523,9.089,7.418,7.973,7.418z"/>
</svg>
