<?xml version="1.0" encoding="utf-8"?>
<!-- Generator: Adobe Illustrator 16.0.0, SVG Export Plug-In . SVG Version: 6.00 Build 0)  -->
<!DOCTYPE svg PUBLIC "-//W3C//DTD SVG 1.1//EN" "http://www.w3.org/Graphics/SVG/1.1/DTD/svg11.dtd">
<svg version="1.1" id="Capa_1" xmlns="http://www.w3.org/2000/svg" xmlns:xlink="http://www.w3.org/1999/xlink" x="0px" y="0px"
	 width="16px" height="16px" viewBox="248 248 16 16" enable-background="new 248 248 16 16" xml:space="preserve">
<path d="M263.938,256c0-4.384-3.554-7.938-7.938-7.938s-7.938,3.554-7.938,7.938s3.554,7.938,7.938,7.938
	S263.938,260.384,263.938,256z M249.551,256c0-3.562,2.887-6.449,6.449-6.449c3.562,0,6.449,2.887,6.449,6.449
	c0,3.562-2.888,6.449-6.449,6.449C252.438,262.449,249.551,259.562,249.551,256z M256.701,260.67l3.969-3.969
	c0.388-0.387,0.388-1.016,0-1.403s-1.015-0.387-1.402,0l-2.275,2.275v-5.542c0-0.548-0.444-0.992-0.992-0.992
	s-0.992,0.444-0.992,0.992v5.542l-2.275-2.275c-0.387-0.387-1.016-0.387-1.403,0c-0.194,0.194-0.291,0.448-0.291,0.702
	s0.097,0.508,0.291,0.701l3.969,3.969C255.686,261.058,256.314,261.058,256.701,260.67z"/>
</svg>
