<?xml version="1.0" encoding="utf-8"?>
<!-- Generator: Adobe Illustrator 16.0.0, SVG Export Plug-In . SVG Version: 6.00 Build 0)  -->
<!DOCTYPE svg PUBLIC "-//W3C//DTD SVG 1.1//EN" "http://www.w3.org/Graphics/SVG/1.1/DTD/svg11.dtd">
<svg version="1.1" id="Capa_1" xmlns="http://www.w3.org/2000/svg" xmlns:xlink="http://www.w3.org/1999/xlink" x="0px" y="0px"
	 width="15.747px" height="15.75px" viewBox="298.125 388.125 15.747 15.75" enable-background="new 298.125 388.125 15.747 15.75"
	 xml:space="preserve">
<path d="M310.441,398.725c0.115-0.115,0.157-0.241,0.126-0.378c-0.011-0.062-0.037-0.12-0.079-0.174
	c-0.042-0.052-0.089-0.099-0.142-0.141l-1.858-1.087l-0.016-0.016c-0.062-0.032-0.147-0.048-0.252-0.048
	c-0.168,0-0.299,0.053-0.394,0.158l-0.552,0.551c-0.031,0.031-0.073,0.047-0.126,0.047c-0.126-0.021-0.278-0.078-0.456-0.173
	c-0.147-0.084-0.334-0.202-0.56-0.354s-0.485-0.375-0.779-0.669c-0.21-0.22-0.404-0.441-0.583-0.662
	c-0.147-0.178-0.283-0.373-0.41-0.583c-0.126-0.21-0.194-0.394-0.205-0.551c0-0.053,0.016-0.094,0.047-0.126l0.472-0.472
	c0.084-0.084,0.137-0.187,0.158-0.308c0.021-0.121,0.005-0.233-0.047-0.338l-1.024-1.921c-0.083-0.168-0.21-0.252-0.377-0.252
	c-0.105,0-0.21,0.042-0.315,0.125l-1.26,1.276c-0.063,0.053-0.118,0.129-0.166,0.229s-0.076,0.191-0.086,0.275v0.394
	c0,0,0.068,0.326,0.205,0.977c0.137,0.651,0.375,1.139,0.717,1.464c0.341,0.326,0.842,0.94,1.504,1.843
	c0.567,0.566,1.097,1.013,1.591,1.339c0.494,0.325,0.937,0.569,1.331,0.732c0.394,0.162,0.728,0.265,1,0.307
	c0.273,0.042,0.468,0.063,0.583,0.063c0.053,0,0.095-0.003,0.126-0.009c0.032-0.005,0.053-0.007,0.063-0.007
	c0.084-0.011,0.173-0.04,0.268-0.087s0.173-0.103,0.236-0.166L310.441,398.725L310.441,398.725z M306,388.125
	c1.081,0,2.103,0.208,3.063,0.622c0.961,0.415,1.795,0.977,2.505,1.686c0.708,0.708,1.27,1.543,1.685,2.504
	c0.415,0.961,0.622,1.982,0.622,3.063c0,0.725-0.095,1.423-0.283,2.095c-0.189,0.672-0.454,1.299-0.796,1.882
	c-0.341,0.583-0.751,1.113-1.228,1.591c-0.479,0.478-1.009,0.888-1.592,1.229c-0.582,0.342-1.21,0.606-1.882,0.796
	c-0.672,0.188-1.37,0.283-2.095,0.283s-1.423-0.095-2.095-0.283c-0.672-0.189-1.299-0.454-1.882-0.796
	c-0.583-0.341-1.113-0.751-1.59-1.229c-0.478-0.478-0.887-1.008-1.229-1.591c-0.342-0.583-0.606-1.21-0.795-1.882
	s-0.284-1.37-0.284-2.095s0.095-1.423,0.284-2.095s0.454-1.299,0.795-1.882c0.341-0.583,0.75-1.113,1.229-1.59
	c0.478-0.478,1.008-0.888,1.59-1.229c0.583-0.342,1.21-0.606,1.882-0.795S305.275,388.125,306,388.125z"/>
</svg>
